<svg width="84" height="84" viewBox="0 0 84 84" fill="none" xmlns="http://www.w3.org/2000/svg">
<path d="M29.5 54.1542V56.5834C29.5 61.5562 31.4755 66.3253 34.9918 69.8416C38.5081 73.3579 43.2772 75.3334 48.25 75.3334C53.2229 75.3334 57.992 73.3579 61.5083 69.8416C65.0246 66.3253 67 61.5562 67 56.5834V49.625C64.2188 48.6421 61.8747 46.7076 60.3819 44.1633C58.8891 41.6191 58.3438 38.6291 58.8425 35.7218C59.3411 32.8144 60.8516 30.1769 63.1068 28.2756C65.3621 26.3742 68.2169 25.3313 71.1667 25.3313C74.1165 25.3313 76.9714 26.3742 79.2266 28.2756C81.4818 30.1769 82.9923 32.8144 83.4909 35.7218C83.9896 38.6291 83.4443 41.6191 81.9515 44.1633C80.4588 46.7076 78.1146 48.6421 75.3334 49.625V56.5834C75.3334 63.7663 72.48 70.6551 67.4008 75.7342C62.3217 80.8133 55.433 83.6667 48.25 83.6667C41.0671 83.6667 34.1783 80.8133 29.0992 75.7342C24.0201 70.6551 21.1667 63.7663 21.1667 56.5834V54.1542C15.3414 53.1679 10.0534 50.1509 6.24004 45.6382C2.42665 41.1254 0.334132 35.4083 0.333374 29.5V8.66671C0.333374 6.45657 1.21135 4.33695 2.77415 2.77415C4.33695 1.21135 6.45657 0.333374 8.66671 0.333374H12.8334C13.9384 0.333374 14.9983 0.772361 15.7797 1.55376C16.5611 2.33516 17 3.39497 17 4.50004C17 5.60511 16.5611 6.66492 15.7797 7.44632C14.9983 8.22772 13.9384 8.66671 12.8334 8.66671H8.66671V29.5C8.66671 33.9203 10.4227 38.1595 13.5483 41.2852C16.6739 44.4108 20.9131 46.1667 25.3334 46.1667C29.7537 46.1667 33.9929 44.4108 37.1185 41.2852C40.2441 38.1595 42 33.9203 42 29.5V8.66671H37.8334C36.7283 8.66671 35.6685 8.22772 34.8871 7.44632C34.1057 6.66492 33.6667 5.60511 33.6667 4.50004C33.6667 3.39497 34.1057 2.33516 34.8871 1.55376C35.6685 0.772361 36.7283 0.333374 37.8334 0.333374H42C44.2102 0.333374 46.3298 1.21135 47.8926 2.77415C49.4554 4.33695 50.3334 6.45657 50.3334 8.66671V29.5C50.3326 35.4083 48.2401 41.1254 44.4267 45.6382C40.6133 50.1509 35.3253 53.1679 29.5 54.1542ZM71.1667 42C72.2718 42 73.3316 41.5611 74.113 40.7797C74.8944 39.9982 75.3334 38.9384 75.3334 37.8334C75.3334 36.7283 74.8944 35.6685 74.113 34.8871C73.3316 34.1057 72.2718 33.6667 71.1667 33.6667C70.0616 33.6667 69.0018 34.1057 68.2204 34.8871C67.439 35.6685 67 36.7283 67 37.8334C67 38.9384 67.439 39.9982 68.2204 40.7797C69.0018 41.5611 70.0616 42 71.1667 42Z" fill="#17494D"/>
</svg>
