<svg width="65" height="65" viewBox="0 0 65 65" fill="none" xmlns="http://www.w3.org/2000/svg">
<path d="M44.9116 25.5171L41.018 18.2461L33.3872 15.7025L33.3696 15.7568L21.5098 19.1453C20.6709 19.3878 19.9332 19.8957 19.4073 20.5929C18.8814 21.29 18.5956 22.1389 18.5929 23.0122V33.5605H22.6145V23.0123L31.8644 20.3695L27.7784 32.8911L27.7589 32.8841L24.0559 43.2525C23.8768 43.746 23.5126 44.1505 23.0405 44.3804C22.5684 44.6102 22.0254 44.6474 21.5264 44.4841L13.1963 41.707L11.9244 45.5223L20.2546 48.2989C21.7512 48.7977 23.3837 48.6903 24.8021 47.9998C26.2205 47.3094 27.312 46.0907 27.8427 44.6051L30.8881 36.0781L33.0464 36.7818L39.1166 42.8521C39.3042 43.0384 39.453 43.2602 39.5543 43.5044C39.6555 43.7487 39.7073 44.0107 39.7066 44.2751V57.6905H43.7283V44.2751C43.7304 43.4826 43.5754 42.6975 43.2721 41.9653C42.9688 41.2331 42.5233 40.5683 41.9614 40.0094L35.8956 33.9437L39.2616 23.6285L41.6833 27.9873C41.9446 28.4574 42.3268 28.8492 42.7904 29.1219C43.254 29.3947 43.782 29.5387 44.3199 29.5388H54.7879V25.5171H44.9116Z" fill="#17494D"/>
<path d="M36.5432 14.1694C37.3331 14.8295 38.3246 15.2005 39.3538 15.2211C40.383 15.2417 41.3885 14.9107 42.2042 14.2827C43.0199 13.6547 43.5971 12.7674 43.8405 11.7671C44.0838 10.7668 43.9788 9.71351 43.5427 8.781C43.1066 7.8485 42.3655 7.09259 41.4419 6.63808C40.5182 6.18357 39.4672 6.05764 38.4623 6.28109C37.4574 6.50453 36.5587 7.06399 35.9147 7.86708C35.2707 8.67018 34.9198 9.66889 34.9199 10.6983C34.9187 11.3606 35.0636 12.0151 35.3442 12.615C35.6247 13.215 36.0341 13.7457 36.5432 14.1694Z" fill="#17494D"/>
</svg>
